#!OML:ASF Y:\EmotionMaleHayes\Project 1\Capture day 1\Session 1\Male1.ASF
:FULLY-SPECIFIED
:DEGREES
1686
root 10.1648 16.7438 -14.0607 722.585 -4.91095 353.17
lowerback 9.98142 3.369 5.78603
upperback 3.01993 5.049 0.826016
thorax -2.00391 2.51372 -2.94299
lowerneck -20.764 0.99841 3.78375
upperneck 29.2987 0.854466 -2.28934
head 13.368 0.489343 -1.3974
rclavicle 1.65488e-014 1.66979e-014
rhumerus -4.96427 -3.29758 -67.0762
rradius 43.5041
rwrist -8.11132
rhand -17.5638 -34.3734
rfingers 7.12502
rthumb 8.69132 -64.1745
lclavicle 1.65488e-014 1.66979e-014
lhumerus -40.3456 7.44215 67.4612
lradius 24.0334
lwrist -9.07569
lhand -21.1497 -22.7252
lfingers 7.12502
lthumb 5.22984 7.19024
rfemur 17.7915 -7.13763 20.6487
rtibia 2.2467
rfoot -24.4667 -8.09307
rtoes -28.7894
lfemur -28.9522 5.58145 -13.2861
ltibia 24.5669
lfoot -6.88352 4.39641
ltoes 9.39671
1687
root 10.1424 16.7182 -13.9531 722.668 -4.76352 353.006
lowerback 9.96105 3.32278 5.95252
upperback 3.00106 5.00511 0.880892
thorax -2.00656 2.49133 -2.97323
lowerneck -20.7694 1.08252 3.97143
upperneck 29.253 0.978298 -2.50284
head 13.3571 0.534235 -1.49165
rclavicle -1.04859e-014 2.04748e-014
rhumerus -4.73274 -2.56306 -67.4313
rradius 44.0322
rwrist -8.48141
rhand -17.5976 -34.2459
rfingers 7.12502
rthumb 8.65868 -64.0483
lclavicle -1.04859e-014 2.04748e-014
lhumerus -40.8534 7.97269 67.2605
lradius 23.7984
lwrist -9.13526
lhand -20.8181 -22.8354
lfingers 7.12502
lthumb 5.54995 7.0719
rfemur 18.1206 -7.05619 20.9509
rtibia 2.25348
rfoot -24.7793 -8.0938
rtoes -27.7185
lfemur -29.0035 4.76679 -12.7493
ltibia 22.9947
lfoot -7.03462 4.83021
ltoes 14.3798
1688
root 10.1204 16.6918 -13.8418 722.754 -4.69154 352.898
lowerback 9.88003 3.30199 6.16261
upperback 3.00977 4.98961 0.80581
thorax -1.92865 2.48707 -3.15875
lowerneck -20.6956 1.15137 4.10986
upperneck 29.0785 1.03056 -2.50832
head 13.2719 0.570687 -1.50597
rclavicle -5.35725e-014 -1.55052e-014
rhumerus -4.62621 -1.75402 -67.9121
rradius 44.6576
rwrist -8.99113
rhand -18.0964 -34.3
rfingers 7.12502
rthumb 8.17731 -64.1218
lclavicle -5.35725e-014 -1.55052e-014
lhumerus -41.194 8.14852 67.1029
lradius 23.4669
lwrist -9.34236
lhand -20.4578 -22.8689
lfingers 7.12502
lthumb 5.89788 7.02902
rfemur 18.4084 -7.42863 21.0399
rtibia 2.44135
rfoot -24.754 -8.76264
rtoes -31.9131
lfemur -28.5274 1.37745 -10.6948
ltibia 21.5589
lfoot -10.2562 5.401
ltoes 36.4806
1689
root 10.0977 16.6659 -13.7274 722.852 -4.64363 352.856
lowerback 9.74121 3.33738 6.33506
upperback 3.05007 5.03807 0.701177
thorax -1.78018 2.51812 -3.35425
lowerneck -20.7093 1.07074 3.8724
upperneck 28.9434 0.891825 -2.18563
head 13.2099 0.52738 -1.36082
rclavicle -8.74653e-015 8.54774e-015
rhumerus -4.59002 -1.14992 -68.346
rradius 45.3382
rwrist -9.22456
rhand -18.2956 -34.43
rfingers 7.12502
rthumb 7.98505 -64.2591
lclavicle -8.74653e-015 8.54774e-015
lhumerus -41.3525 7.93174 67.1691
lradius 23.0968
lwrist -9.18183
lhand -20.0569 -22.9374
lfingers 7.12502
lthumb 6.28484 6.94933
rfemur 18.7348 -7.22042 21.2168
rtibia 2.51636
rfoot -25.041 -8.84203
rtoes -31.4598
lfemur -28.6737 1.24454 -10.5259
ltibia 20.6057
lfoot -10.2311 5.55594
ltoes 35.2589
1690
root 10.0784 16.6423 -13.6123 722.888 -4.67726 352.879
lowerback 9.78855 3.39338 6.35911
upperback 3.03589 5.11709 0.647993
thorax -1.8057 2.55651 -3.43389
lowerneck -20.9411 0.959767 3.75788
upperneck 29.1392 0.757852 -2.16257
head 13.3342 0.460308 -1.35806
rclavicle 4.36332e-014 -1.03368e-014
rhumerus -4.6673 -0.421186 -68.7056
rradius 46.0103
rwrist -9.63931
rhand -18.4144 -34.2987
rfingers 7.12502
rthumb 7.87039 -64.1322
lclavicle 4.36332e-014 -1.03368e-014
lhumerus -41.6766 8.70858 66.7382
lradius 22.6828
lwrist -9.79054
lhand -19.2358 -23.33
lfingers 7.12502
lthumb 7.07758 6.53163
rfemur 19.0978 -6.45144 21.4811
rtibia 2.62958
rfoot -25.5509 -8.60363
rtoes -27.6207
lfemur -28.9313 2.14599 -11.0507
ltibia 19.8432
lfoot -9.4855 5.056
ltoes 33.6498
1691
root 10.0545 16.6189 -13.4943 722.844 -4.76379 352.625
lowerback 9.97234 3.44798 6.51284
upperback 3.00589 5.22113 0.7232
thorax -1.92017 2.60306 -3.46596
lowerneck -21.2165 0.952228 4.039
upperneck 29.4265 0.772766 -2.57635
head 13.5166 0.442141 -1.57176
rclavicle 1.61513e-014 1.63003e-014
rhumerus -4.84087 0.425431 -69.0402
rradius 46.6301
rwrist -9.94522
rhand -18.3258 -34.089
rfingers 7.12502
rthumb 7.95587 -63.9192
lclavicle 1.61513e-014 1.63003e-014
lhumerus -42.1466 10.4216 65.8069
lradius 22.253
lwrist -11.6018
lhand -18.4592 -23.6643
lfingers 7.12502
lthumb 7.82716 6.17077
rfemur 19.5333 -5.78938 22.0712
rtibia 2.76605
rfoot -25.8352 -8.70507
rtoes -25.9758
lfemur -29.1174 3.37792 -11.2786
ltibia 19.4212
lfoot -8.64107 4.6295
ltoes 28.6923
1692
root 10.0222 16.5932 -13.3748 722.819 -4.83022 351.719
lowerback 10.0959 3.47435 7.26982
upperback 3.03136 5.34508 0.958819
thorax -1.89907 2.66535 -3.65848
lowerneck -20.8472 1.00266 3.85883
upperneck 29.0077 0.840124 -2.32357
head 13.2637 0.484488 -1.4225
rclavicle 2.25124e-014 2.84262e-014
rhumerus -5.00345 1.12885 -69.4165
rradius 47.2349
rwrist -9.8372
rhand -17.8742 -34.0706
rfingers 7.12502
rthumb 8.39173 -63.8839
lclavicle 2.25124e-014 2.84262e-014
lhumerus -42.3931 11.4645 65.3124
lradius 21.8396
lwrist -12.6229
lhand -17.8438 -23.6742
lfingers 7.12502
lthumb 8.42108 6.1379
rfemur 19.9331 -5.34158 23.4571
rtibia 2.95134
rfoot -25.9142 -9.18946
rtoes -27.2083
lfemur -28.4207 -0.0455405 -8.08414
ltibia 18.3225
lfoot -11.7744 4.93056
ltoes 43.371
1693
root 9.99383 16.5688 -13.2528 722.809 -4.92082 350.761
lowerback 10.219 3.49531 8.23344
upperback 3.05263 5.4809 1.07111
thorax -1.84511 2.73591 -4.09214
lowerneck -20.7487 0.973362 3.74372
upperneck 28.8174 0.710712 -1.92424
head 13.1575 0.469579 -1.26611
rclavicle 3.98066e-014 1.31198e-014
rhumerus -5.28322 1.75499 -70.0093
rradius 47.8941
rwrist -9.87783
rhand -17.6647 -33.9676
rfingers 7.12502
rthumb 8.59388 -63.7727
lclavicle 3.98066e-014 1.31198e-014
lhumerus -42.3125 11.2691 65.3443
lradius 21.367
lwrist -12.4669
lhand -17.1091 -23.5632
lfingers 7.12502
lthumb 9.13011 6.21918
rfemur 20.3223 -4.65029 25.0356
rtibia 3.11077
rfoot -26.0039 -9.92828
rtoes -28.5121
lfemur -28.7086 1.82345 -7.68077
ltibia 18.548
lfoot -10.1078 4.82921
ltoes 36.5469
1694
root 9.97677 16.5485 -13.1258 722.722 -5.09006 351.022
lowerback 10.2997 3.5557 7.95057
upperback 3.10742 5.53187 0.899358
thorax -1.83595 2.76373 -4.12344
lowerneck -20.7902 1.005 3.78995
upperneck 28.7485 0.692782 -1.78889
head 13.1373 0.48484 -1.2235
rclavicle 4.25399e-014 -1.98785e-015
rhumerus -5.53775 2.58909 -70.6196
rradius 48.4988
rwrist -9.91971
rhand -17.6752 -33.6125
rfingers 7.12502
rthumb 8.58379 -63.418
lclavicle 4.25399e-014 -1.98785e-015
lhumerus -42.3519 11.479 65.2581
lradius 20.9587
lwrist -12.8668
lhand -16.6201 -23.351
lfingers 7.12502
lthumb 9.60188 6.41018
rfemur 20.7526 -4.60017 24.6893
rtibia 3.43143
rfoot -25.7851 -10.3737
rtoes -31.7948
lfemur -29.2086 4.79896 -9.57302
ltibia 19.0799
lfoot -7.64894 4.31675
ltoes 18.4015
1695
root 9.96708 16.527 -12.992 722.573 -5.26655 351.713
lowerback 10.3233 3.63509 7.17241
upperback 3.18656 5.55115 0.704159
thorax -1.82134 2.77576 -3.89795
lowerneck -20.8179 1.06083 3.97012
upperneck 28.7367 0.764843 -1.96679
head 13.1424 0.511255 -1.31137
rclavicle -1.73937e-014 -1.43125e-014
rhumerus -5.78643 3.41391 -71.1358
rradius 49.0042
rwrist -9.49445
rhand -17.4262 -33.3967
rfingers 7.12502
rthumb 8.82406 -63.1922
lclavicle -1.73937e-014 -1.43125e-014
lhumerus -42.7398 13.1871 64.409
lradius 20.6796
lwrist -14.8852
lhand -16.0345 -23.3539
lfingers 7.12502
lthumb 10.1669 6.3804
rfemur 21.1296 -5.35371 23.3238
rtibia 4.07087
rfoot -25.2583 -10.6959
rtoes -37.691
lfemur -29.1968 5.3306 -10.8401
ltibia 19.3887
lfoot -6.94846 4.4184
ltoes 5.85256
1696
root 9.95405 16.504 -12.8526 722.468 -5.39043 351.85
lowerback 10.3392 3.72783 6.96849
upperback 3.22588 5.65112 0.647224
thorax -1.7919 2.82749 -3.85327
lowerneck -20.8184 1.01281 4.00073
upperneck 28.74 0.699241 -2.01114
head 13.1416 0.479993 -1.34523
rclavicle 1.85864e-014 3.77691e-014
rhumerus -6.18341 4.00382 -71.6481
rradius 49.4814
rwrist -8.93623
rhand -17.1461 -33.2467
rfingers 7.12502
rthumb 9.09437 -63.0306
lclavicle 1.85864e-014 3.77691e-014
lhumerus -42.7175 12.5111 65.098
lradius 20.3033
lwrist -14.4753
lhand -16.2929 -23.1395
lfingers 7.12502
lthumb 9.91757 6.60691
rfemur 21.6137 -4.6098 23.2893
rtibia 4.35683
rfoot -25.8732 -9.54166
rtoes -32.9007
lfemur -29.6674 7.81627 -12.3972
ltibia 20.7162
lfoot -5.55054 4.00929
ltoes -31.638
1697
root 9.93964 16.4812 -12.7112 722.359 -5.46885 351.994
lowerback 10.3638 3.814 6.74176
upperback 3.26683 5.7411 0.602415
thorax -1.77083 2.87373 -3.78327
lowerneck -20.8177 0.932568 3.77755
upperneck 28.698 0.601622 -1.81875
head 13.1187 0.439073 -1.24819
rclavicle 3.95581e-014 -7.55382e-015
rhumerus -6.76451 4.91834 -72.0415
rradius 50.1691
rwrist -8.8658
rhand -17.1468 -33.0263
rfingers 7.12502
rthumb 9.09371 -62.8103
lclavicle 3.95581e-014 -7.55382e-015
lhumerus -42.6952 12.6541 65.3744
lradius 19.8388
lwrist -15.2427
lhand -17.3982 -22.8165
lfingers 7.12502
lthumb 8.85113 6.97787
rfemur 22.0881 -4.43352 23.0232
rtibia 4.69981
rfoot -25.9227 -9.07759
rtoes -31.9715
lfemur -28.9545 5.37556 -11.1563
ltibia 20.3546
lfoot -6.61675 3.88947
ltoes 4.95594
1698
root 9.92702 16.4564 -12.5661 722.21 -5.57418 352.364
lowerback 10.3668 3.897 6.26055
upperback 3.3197 5.79727 0.482095
thorax -1.74802 2.90317 -3.64602
lowerneck -20.8539 0.878347 3.56998
upperneck 28.6866 0.512406 -1.55926
head 13.1172 0.413032 -1.12665
rclavicle -3.37934e-015 -2.66371e-014
rhumerus -7.47199 6.09039 -72.4835
rradius 50.9759
rwrist -8.93515
rhand -17.2227 -32.8477
rfingers 7.12502
rthumb 9.02043 -62.6348
lclavicle -3.37934e-015 -2.66371e-014
lhumerus -42.6908 12.6927 65.6384
lradius 19.5428
lwrist -15.6058
lhand -18.0703 -22.4538
lfingers 7.12502
lthumb 8.20253 7.36702
rfemur 22.5515 -4.27723 22.4927
rtibia 5.12901
rfoot -25.7278 -9.3327
rtoes -34.0714
lfemur -27.6096 -0.515374 -8.47384
ltibia 20.2933
lfoot -11.3542 4.93265
ltoes 39.0289
1699
root 9.91504 16.4338 -12.4153 722.134 -5.6934 352.629
lowerback 10.2597 3.95165 5.89482
upperback 3.37288 5.82043 0.356063
thorax -1.65586 2.91883 -3.56528
lowerneck -20.9969 0.882397 3.5798
upperneck 28.746 0.484022 -1.48399
head 13.171 0.41237 -1.10453
rclavicle 6.5102e-014 -3.1408e-014
rhumerus -7.99057 6.84108 -73.194
rradius 51.4158
rwrist -8.35618
rhand -16.8624 -32.3106
rfingers 7.12502
rthumb 9.36816 -62.0824
lclavicle 6.5102e-014 -3.1408e-014
lhumerus -42.7486 13.1194 65.5871
lradius 19.3933
lwrist -16.0337
lhand -17.9672 -22.4342
lfingers 7.12502
lthumb 8.30198 7.38271
rfemur 22.9781 -3.80474 22.3027
rtibia 5.51
rfoot -25.5892 -9.51567
rtoes -34.6042
lfemur -28.5361 5.45536 -11.9037
ltibia 21.8121
lfoot -6.28788 3.14468
ltoes 7.48422
1700
root 9.91326 16.4142 -12.2595 722.09 -5.61483 352.86
lowerback 10.0986 3.92309 5.69948
upperback 3.40936 5.74921 0.243553
thorax -1.54499 2.88817 -3.55167
lowerneck -20.9905 0.909589 3.64186
upperneck 28.6542 0.503405 -1.49352
head 13.1326 0.425324 -1.1147
rclavicle 1.80894e-014 4.05521e-014
rhumerus -8.58746 7.41677 -73.8837
rradius 51.7707
rwrist -7.44912
rhand -16.0433 -31.5747
rfingers 7.12502
rthumb 10.1584 -61.3094
lclavicle 1.80894e-014 4.05521e-014
lhumerus -42.8695 14.3247 65.144
lradius 19.1481
lwrist -17.2067
lhand -17.7439 -22.8157
lfingers 7.12502
lthumb 8.51752 6.99256
rfemur 23.4556 -3.39605 22.1481
rtibia 5.81421
rfoot -25.4869 -9.414
rtoes -33.7158
lfemur -28.4203 5.4021 -12.3769
ltibia 22.6583
lfoot -5.83001 3.2454
ltoes 5.06163
